<svg width="46" height="50" viewBox="0 0 46 50" fill="none" xmlns="http://www.w3.org/2000/svg">
<path d="M9.58333 49.4074H36.4167C38.9575 49.4043 41.3932 48.3648 43.1896 46.5163C44.9865 44.6682 45.997 42.1626 46 39.5487V19.9045C45.9949 16.7511 44.5282 13.7891 42.0516 11.9308L28.6349 1.89253C26.9993 0.662843 25.0258 0 23 0C20.9742 0 19.0006 0.662821 17.3651 1.89253L3.94844 11.9308C1.47178 13.789 0.00514762 16.751 0 19.9045V39.5487C0.00299482 42.1626 1.01352 44.6682 2.81038 46.5163C4.60679 48.3648 7.04249 49.4044 9.58333 49.4074ZM17.25 45.4639V35.6052C17.25 33.4917 18.3461 31.5389 20.125 30.4827C21.9039 29.4259 24.0961 29.4259 25.875 30.4827C27.6539 31.5389 28.75 33.4917 28.75 35.6052V45.4639H17.25ZM3.83333 19.9045C3.83633 18.0125 4.71552 16.2353 6.20047 15.1191L19.6171 5.08303C20.599 4.34495 21.7836 3.94709 23 3.94709C24.2164 3.94709 25.401 4.34495 26.3829 5.08303L39.7995 15.1191C41.2846 16.2352 42.1637 18.0125 42.1667 19.9045V39.5487C42.1667 41.1178 41.5609 42.622 40.4827 43.7316C39.4042 44.8407 37.9419 45.4639 36.4167 45.4639H32.5833V35.6052C32.5833 32.0829 30.7569 28.8283 27.7917 27.0674C24.8264 25.3064 21.1736 25.3064 18.2083 27.0674C15.2431 28.8283 13.4167 32.083 13.4167 35.6052V45.4639H9.58333C8.0581 45.4639 6.59585 44.8407 5.51726 43.7316C4.43913 42.6221 3.83333 41.1178 3.83333 39.5487V19.9045Z" fill="#333333"/>
</svg>
