<svg width="49" height="48" viewBox="0 0 49 48" fill="none" xmlns="http://www.w3.org/2000/svg">
<path d="M47.1407 39.6509H9.56914C9.26676 39.6481 8.97929 39.5195 8.77616 39.2959C8.59118 39.0666 8.50173 38.7754 8.52549 38.4819C8.92198 35.2676 11.4057 29.2144 17.9184 29.2144C25.6414 29.2144 31.4859 26.9603 31.4859 23.9961C31.4859 23.4198 31.9532 22.9525 32.5295 22.9525H47.1407C47.4175 22.9525 47.683 23.0624 47.8787 23.2581C48.0744 23.4538 48.1844 23.7194 48.1844 23.9961V38.6073C48.1844 38.884 48.0744 39.1496 47.8787 39.3453C47.683 39.541 47.4175 39.6509 47.1407 39.6509V39.6509ZM10.843 37.5636H46.0971V25.0397H33.448C32.4462 29.3607 25.0987 31.3017 17.9184 31.3017C16.1968 31.3664 14.5513 32.0262 13.2611 33.1677C11.971 34.3092 11.1165 35.8631 10.8425 37.5636H10.843Z" fill="#333333"/>
<path d="M45.0533 48H40.8787C40.3024 48 39.835 47.5327 39.835 46.9564V43.8254H31.4858V46.9564C31.4858 47.2331 31.3758 47.4987 31.1802 47.6944C30.9845 47.8901 30.7189 48 30.4421 48H26.2675C25.6912 48 25.2239 47.5327 25.2239 46.9564V43.8254H16.8746V46.9564C16.8746 47.2331 16.7647 47.4987 16.569 47.6944C16.3733 47.8901 16.1077 48 15.831 48H11.6564C11.08 48 10.6127 47.5327 10.6127 46.9564V43.8254H9.56905C8.99271 43.8254 8.52539 43.3581 8.52539 42.7818V38.6071C8.52539 38.0308 8.99271 37.5635 9.56905 37.5635H47.1406C47.4174 37.5635 47.6829 37.6734 47.8786 37.8691C48.0743 38.0648 48.1843 38.3304 48.1843 38.6071V42.7818C48.1843 43.0585 48.0743 43.3241 47.8786 43.5198C47.6829 43.7154 47.4174 43.8254 47.1406 43.8254H46.097V46.9564C46.097 47.2331 45.987 47.4987 45.7913 47.6944C45.5956 47.8901 45.3301 48 45.0533 48ZM41.9223 45.9127H44.0097V42.7818C44.0097 42.2054 44.477 41.7381 45.0533 41.7381H46.097V39.6508H10.6127V41.7381H11.6564C11.9331 41.7381 12.1987 41.8481 12.3944 42.0437C12.5901 42.2394 12.7 42.505 12.7 42.7818V45.9127H14.7873V42.7818C14.7873 42.2054 15.2546 41.7381 15.831 41.7381H26.2675C26.5443 41.7381 26.8099 41.8481 27.0055 42.0437C27.2012 42.2394 27.3112 42.505 27.3112 42.7818V45.9127H29.3985V42.7818C29.3985 42.2054 29.8658 41.7381 30.4421 41.7381H40.8787C41.1554 41.7381 41.421 41.8481 41.6167 42.0437C41.8124 42.2394 41.9223 42.505 41.9223 42.7818V45.9127Z" fill="#333333"/>
<path d="M24.18 35.4763C23.7747 35.4786 23.4061 35.241 23.2407 34.8711L21.1534 30.4457C21.0104 30.1941 20.9782 29.8941 21.0649 29.6173C21.1516 29.3411 21.3491 29.1132 21.6105 28.9879C21.8719 28.863 22.1738 28.8528 22.4431 28.959C22.7128 29.0652 22.9262 29.2786 23.032 29.5484L25.1193 33.9941C25.2395 34.2429 25.254 34.5295 25.1598 34.789C25.0653 35.048 24.87 35.2586 24.6184 35.3718C24.4805 35.4357 24.3314 35.4711 24.18 35.4762L24.18 35.4763Z" fill="#333333"/>
<path d="M29.1263 34.4326C28.7237 34.4246 28.3603 34.1903 28.187 33.8273L26.0997 29.402C25.9785 29.1504 25.9636 28.8611 26.0577 28.5983C26.1519 28.3355 26.3471 28.1212 26.6005 28.0038C27.1252 27.7638 27.7458 27.9861 27.9988 28.5046L30.0861 32.9504C30.3242 33.4694 30.101 34.083 29.5852 34.3281C29.4413 34.3947 29.2847 34.4306 29.1263 34.4325L29.1263 34.4326Z" fill="#333333"/>
<path d="M33.3008 32.3453C32.8983 32.3374 32.5349 32.1031 32.3615 31.7401L30.2742 27.3148C30.1531 27.0632 30.1382 26.7738 30.2323 26.5111C30.3264 26.2483 30.5216 26.034 30.7751 25.9166C31.2997 25.6766 31.9203 25.8989 32.1734 26.4174L34.2607 30.8631C34.4987 31.3822 34.2756 31.9958 33.7598 32.2409C33.6158 32.3075 33.4593 32.3434 33.3009 32.3453L33.3008 32.3453Z" fill="#333333"/>
<path d="M22.739 28.1706H22.5303L15.7255 26.8139C15.3612 26.7477 15.0597 26.4933 14.9326 26.1457L12.6575 19.4664H12.657C12.5354 19.1062 12.6151 18.7083 12.8658 18.4227L17.5202 13.1211H17.5207C17.7676 12.8476 18.139 12.7213 18.5015 12.787L25.4316 14.1647C25.7908 14.2453 26.0829 14.5058 26.2041 14.8538L28.4791 21.5332C28.6016 21.8864 28.5215 22.2787 28.2704 22.5559L23.6159 27.8575H23.6154C23.3927 28.0993 23.0647 28.2168 22.7391 28.1706L22.739 28.1706ZM16.6024 24.8519L22.3426 25.9999L26.1621 21.6376L24.2835 16.1062L18.5434 14.9582L14.6819 19.3625L16.6024 24.8519Z" fill="#333333"/>
<path d="M26.1625 10.7839H25.9537L19.0866 9.38518C18.7195 9.3111 18.418 9.04972 18.2932 8.69656L16.0391 2.01717C15.9347 1.67891 16.0051 1.3113 16.2269 1.03594L16.5609 0.639447C16.7291 0.464733 16.9486 0.347783 17.1871 0.305381C22.0564 -0.481558 27.0459 0.519241 31.2341 3.12325C31.4396 3.24719 31.5947 3.43914 31.6725 3.66604L31.8188 4.1669C31.939 4.51028 31.8673 4.89187 31.6311 5.16862L26.9761 10.4289C26.7679 10.6576 26.4716 10.7867 26.1622 10.7839H26.1625ZM20.0469 7.44422L25.766 8.59224L29.4188 4.41762C26.0265 2.53117 22.1281 1.75719 18.2727 2.20495L20.0469 7.44422Z" fill="#333333"/>
<path d="M39.5833 22.1175H39.3956L32.4241 20.8651C32.0597 20.7989 31.7583 20.5445 31.6311 20.197L29.2512 13.5595C29.1361 13.2087 29.2069 12.8234 29.4394 12.5369L33.9895 7.13085C34.2341 6.86527 34.5915 6.73342 34.9498 6.77581H35.4506C35.6962 6.81262 35.9193 6.93889 36.0768 7.13085C39.2804 10.8875 41.0155 15.6776 40.961 20.6149C40.9638 20.8674 40.8748 21.112 40.7108 21.304L40.3767 21.6795C40.1927 21.939 39.901 22.1002 39.5833 22.1179L39.5833 22.1175ZM33.4048 18.9241L38.8737 19.9054V19.9049C38.7442 16.0084 37.3852 12.2532 34.9912 9.17623L31.4218 13.3509L33.4048 18.9241Z" fill="#333333"/>
<path d="M6.93764 35.0587H6.29048C6.05519 35.0196 5.83714 34.9106 5.66429 34.7456C2.25005 31.1906 0.240504 26.5189 0.00803701 21.5956C-0.002679 21.4987 -0.002679 21.4004 0.00803701 21.3034C0.0527651 21.1567 0.11613 21.0164 0.1958 20.886L0.487928 20.4895C0.719954 20.2025 1.08151 20.0534 1.44819 20.0925L8.44067 20.9065V20.9069C8.81434 20.9428 9.13628 21.1842 9.2756 21.5331L12.0725 28.0038C12.2588 28.3267 12.2588 28.7246 12.0725 29.0475L7.89785 34.7042V34.7037C7.6593 34.9786 7.29728 35.1123 6.93759 35.0587L6.93764 35.0587ZM2.13683 22.2009C2.49419 26.0703 4.07314 29.7255 6.64554 32.6374L9.94325 28.1707L7.62669 22.8481L2.13683 22.2009Z" fill="#333333"/>
<path d="M8.92145 17.7341H8.81708L1.8036 17.066C1.43366 17.0245 1.11032 16.7962 0.948177 16.4607L0.739446 15.9808C0.656513 15.7516 0.656513 15.5005 0.739446 15.2712C2.02356 10.5073 4.98957 6.36989 9.08868 3.62382C9.29974 3.48917 9.54808 3.42394 9.79827 3.43606H10.2782C10.6407 3.48451 10.9547 3.71188 11.1131 4.04128L14.0353 10.47V10.4704C14.1784 10.8133 14.1392 11.2056 13.931 11.5141L9.75634 17.2542C9.56811 17.5356 9.25967 17.7131 8.92141 17.7341L8.92145 17.7341ZM2.91024 14.9372L8.42061 15.48L11.8227 10.7212L9.46427 5.71116C6.36587 8.02306 4.07317 11.2504 2.91024 14.9373V14.9372Z" fill="#333333"/>
<path d="M9.98615 37.8557C9.79932 37.8533 9.61761 37.7951 9.46432 37.6889C8.09123 36.8395 6.82954 35.8228 5.70716 34.6623C2.2897 31.118 0.278727 26.4514 0.0504354 21.5337C-0.0478733 19.876 0.0714025 18.2131 0.40547 16.5865C0.40547 16.1691 0.572263 15.7516 0.676628 15.3552C1.94583 10.5511 4.91184 6.36898 9.02587 3.58284C11.4663 1.88461 14.2544 0.751021 17.1874 0.263664C21.1295 -0.374647 25.1727 0.151844 28.8194 1.77977C32.4666 3.40763 35.5584 6.06531 37.7156 9.42588C39.8728 12.787 41.0008 16.7049 40.9617 20.6988C40.9566 21.8692 40.8378 23.0368 40.6071 24.1843C40.5247 24.6833 40.09 25.0472 39.584 25.0402H33.4474C32.4457 29.3612 25.0982 31.3022 17.9178 31.3022C16.2717 31.3376 14.6876 31.9344 13.4274 32.9935C12.1671 34.0525 11.3065 35.5108 10.9878 37.1258C10.8919 37.4393 10.6515 37.6877 10.3411 37.7939C10.2275 37.8363 10.1073 37.8577 9.98611 37.8563L9.98615 37.8557ZM2.09636 21.5126C2.32232 25.9034 4.13142 30.0632 7.18927 33.2226C7.88629 33.9508 8.64765 34.6143 9.46432 35.2055C10.0705 33.4486 11.2119 31.9259 12.7285 30.8515C14.2446 29.7771 16.0594 29.2044 17.9179 29.2147C25.641 29.2147 31.4854 26.9606 31.4854 23.9964C31.4854 23.4201 31.9528 22.9528 32.5291 22.9528H38.791C38.8977 22.1989 38.9536 21.439 38.9578 20.6777C38.9881 16.2375 37.4087 11.9367 34.5121 8.57132C33.2629 7.09673 31.7827 5.83504 30.1287 4.83516C26.393 2.51634 21.9449 1.6269 17.6049 2.33039C14.9571 2.72409 12.4318 3.70861 10.2159 5.21063C6.53283 7.67211 3.85797 11.3765 2.68061 15.6472C2.68061 16.0856 2.47188 16.4821 2.40945 16.8576C2.10102 18.3327 1.99571 19.8422 2.09636 21.3453V21.5126Z" fill="#333333"/>
</svg>
