<svg width="63" height="52" viewBox="0 0 63 52" fill="none" xmlns="http://www.w3.org/2000/svg">
<path d="M61.6816 10.5836L61.6802 10.5829L43.2457 1.26093C40.8464 4.01146 36.414 5.73983 31.5018 5.73983C26.5895 5.73983 22.1571 4.01146 19.7578 1.26093L1.32811 10.5805C1.04283 10.7299 0.912779 11.1002 1.06279 11.4124C1.06305 11.4129 1.06331 11.4135 1.06357 11.414L6.68905 22.9031C6.68935 22.9037 6.68964 22.9043 6.68994 22.9049C6.84348 23.212 7.18969 23.3135 7.45957 23.1776L7.46268 23.176L13.0327 20.3948L61.6816 10.5836ZM61.6816 10.5836C61.9532 10.7204 62.0911 11.0894 61.9345 11.405L61.9326 11.4089L56.2929 22.8969L56.2926 22.8976C56.1374 23.2142 55.7966 23.3082 55.5334 23.1722L55.5334 23.1721M61.6816 10.5836L55.5334 23.1721M55.5334 23.1721L55.5211 23.166M55.5334 23.1721L55.5211 23.166M55.5211 23.166L49.9512 20.3848C49.951 20.3847 49.9508 20.3846 49.9506 20.3845C49.9505 20.3845 49.9504 20.3844 49.9503 20.3843C48.2066 19.5123 46.2398 20.8372 46.2398 22.7251V48.2016C46.2398 49.4458 45.2612 50.4151 44.0902 50.4151H18.8936C17.7226 50.4151 16.744 49.4458 16.744 48.2016V22.7351C16.744 20.832 14.7726 19.5247 13.0335 20.3944L55.5211 23.166Z" fill="#F1B31C" stroke="black" stroke-width="2"/>
</svg>
